<?xml version="1.0" encoding="UTF-8" standalone="no"?>
<svg
   width="1010.9783325195312"
   height="642.1755981445312"
   version="1.1"
   id="svg4"
   sodipodi:docname="sp logo 25-07-2025.svg"
   xml:space="preserve"
   inkscape:version="1.4.3 (0d15f75, 2025-12-25)"
   xmlns:inkscape="http://www.inkscape.org/namespaces/inkscape"
   xmlns:sodipodi="http://sodipodi.sourceforge.net/DTD/sodipodi-0.dtd"
   xmlns:xlink="http://www.w3.org/1999/xlink"
   xmlns="http://www.w3.org/2000/svg"
   xmlns:svg="http://www.w3.org/2000/svg"><defs
     id="defs4"><linearGradient
       id="linearGradient6"
       inkscape:collect="always"><stop
         style="stop-color:#35009b;stop-opacity:1;"
         offset="0"
         id="stop6" /><stop
         style="stop-color:#000000;stop-opacity:1;"
         offset="0.57452965"
         id="stop7" /></linearGradient><linearGradient
       id="linearGradient4"
       inkscape:collect="always"><stop
         style="stop-color:#ff00b9;stop-opacity:1;"
         offset="0"
         id="stop4" /><stop
         style="stop-color:#fe0f30;stop-opacity:1;"
         offset="1"
         id="stop5" /></linearGradient><linearGradient
       inkscape:collect="always"
       xlink:href="#linearGradient4"
       id="linearGradient5"
       x1="844.37671"
       y1="587.8808"
       x2="844.37665"
       y2="358.53244"
       gradientUnits="userSpaceOnUse" /><linearGradient
       inkscape:collect="always"
       xlink:href="#linearGradient6"
       id="linearGradient7"
       x1="484.53568"
       y1="630.16113"
       x2="484.53568"
       y2="0"
       gradientUnits="userSpaceOnUse" /></defs><sodipodi:namedview
     id="namedview4"
     pagecolor="#505050"
     bordercolor="#eeeeee"
     borderopacity="1"
     inkscape:showpageshadow="0"
     inkscape:pageopacity="0"
     inkscape:pagecheckerboard="0"
     inkscape:deskcolor="#505050"
     inkscape:zoom="0.37768116"
     inkscape:cx="616.92248"
     inkscape:cy="285.95549"
     inkscape:window-width="1600"
     inkscape:window-height="930"
     inkscape:window-x="-6"
     inkscape:window-y="-6"
     inkscape:window-maximized="1"
     inkscape:current-layer="svg4" /><path
     d="M 1010.9783325195312 192.5372772216797 C 1010.889404296875 170.7638702392578 ,1011.3277587890625 148.86932373046875 ,1008.9954223632812 127.17962646484375 C 1006.7020263671875 105.56593322753906 ,1001.0955810546875 84.18822479248047 ,990.34423828125 65.53912353515625 C 979.7373046875 46.86811065673828 ,964.1103515625 31.240726470947266 ,945.4391479492188 20.634126663208008 C 926.7898559570312 9.882855415344238 ,905.4124145507812 4.275965690612793 ,883.798583984375 1.982879638671875 C 862.10888671875 -0.34940242767333984 ,840.2146606445312 0.08885860443115234 ,818.4410400390625 -0.0 L 192.53726196289062 -0.0 C 170.7638702392578 0.08893013000488281 ,148.86924743652344 -0.3494739532470703 ,127.17964935302734 1.982879638671875 C 105.56623840332031 4.2762041091918945 ,84.18817138671875 9.882831573486328 ,65.53912353515625 20.63410186767578 C 46.868038177490234 31.2408447265625 ,31.24070167541504 46.867919921875 ,20.634078979492188 65.53912353515625 C 9.882926940917969 84.18831634521484 ,4.275989532470703 105.56595611572266 ,1.982879638671875 127.17964935302734 C -0.34928321838378906 148.86935424804688 ,0.08878707885742188 170.76385498046875 ,0.0 192.53726196289062 L 0.0 449.6383056640625 C 0.08883476257324219 471.4117126464844 ,-0.34942626953125 493.3062438964844 ,1.982879638671875 514.9959716796875 C 4.276227951049805 536.609619140625 ,9.882736206054688 557.9873657226562 ,20.634031295776367 576.636474609375 C 31.24103546142578 595.3074340820312 ,46.867897033691406 610.934814453125 ,65.53916931152344 621.5414428710938 C 84.18846130371094 632.292724609375 ,105.56593322753906 637.8995971679688 ,127.17967224121094 640.1926879882812 C 148.86941528320312 642.5250244140625 ,170.76368713378906 642.086669921875 ,192.5373077392578 642.1755981445312 L 818.4410400390625 642.1755981445312 C 840.2144165039062 642.086669921875 ,862.1090698242188 642.5250244140625 ,883.7987060546875 640.1926879882812 C 905.412109375 637.8994140625 ,926.7901611328125 632.292724609375 ,945.4391479492188 621.54150390625 C 964.1102905273438 610.9347534179688 ,979.7376708984375 595.3076171875 ,990.34423828125 576.636474609375 C 1001.0953979492188 557.9872436523438 ,1006.7023315429688 536.609619140625 ,1008.9954223632812 514.9959716796875 C 1011.3275756835938 493.30621337890625 ,1010.8895263671875 471.4117126464844 ,1010.9783325195312 449.6383056640625 Z "
     fill="#000000"
     fill-opacity="1.0"
     fill-rule="evenodd"
     id="path1"
     style="fill-opacity:1;fill:url(#linearGradient7)" /><path
     id="path2"
     style="fill-opacity:1;fill:url(#linearGradient5)"
     d="M 726.98828 358.15625 L 726.98828 526.38281 C 727.01929 533.71344 726.86682 541.07721 727.68945 548.41602 C 728.49695 555.72742 730.47131 563.0119 734.21875 569.41797 C 737.91547 575.82935 743.33466 581.2486 749.74609 584.94531 C 756.15222 588.69263 763.43671 590.66718 770.74805 591.47461 C 778.08685 592.29724 785.45056 592.14484 792.78125 592.17578 L 794.86328 592.17578 C 815.53809 592.10889 836.44507 592.42426 856.41406 590.85156 C 876.34424 589.28271 895.15802 585.45923 910.67773 577.44531 C 926.25378 569.5332 938.36322 557.42175 946.27539 541.8457 C 954.28931 526.32599 958.11475 507.51212 959.68359 487.58203 C 961.25629 467.6131 960.94092 446.70602 961.00781 426.03125 L 961.00781 423.94922 C 960.97693 416.61862 961.12921 409.25488 960.30664 401.91602 C 959.49921 394.60477 957.52472 387.32004 953.77734 380.91406 C 950.08069 374.50275 944.66138 369.08328 938.25 365.38672 C 931.84399 361.63934 924.55939 359.66479 917.24805 358.85742 C 909.90924 358.03488 902.54535 358.1871 895.21484 358.15625 L 726.98828 358.15625 z M 843.66406 400.2793 C 864.36798 400.2793 880.0069 406.5043 890.58203 418.95312 C 901.15704 431.40201 906.44531 449.36725 906.44531 472.84961 C 906.44531 521.29401 885.51807 545.51758 843.66406 545.51758 C 823.22778 545.51758 807.74335 539.276 797.21289 526.79492 C 786.68243 514.37823 781.41797 496.39627 781.41797 472.84961 C 781.41797 424.46954 802.16693 400.2793 843.66406 400.2793 z M 843.66406 415.33398 C 830.72406 415.33392 821.24255 419.82214 815.21875 428.79688 C 809.19495 437.77164 806.18164 452.45535 806.18164 472.84961 C 806.18164 483.97955 807.07452 493.40479 808.85938 501.125 C 829.42944 476.16296 850.00024 451.20233 870.57031 426.24023 C 864.41272 418.97037 855.44385 415.33392 843.66406 415.33398 z M 879.67188 447.37305 C 859.10181 471.75607 838.53101 496.14038 817.96094 520.52344 C 823.94006 527.21429 832.50885 530.55859 843.66406 530.55859 C 856.78241 530.55859 866.42047 526.03912 872.57812 517 C 878.73572 507.96094 881.81445 493.24384 881.81445 472.84961 C 881.81445 463.00632 881.09973 454.51428 879.67188 447.37305 z " /><path
     d="M 961.00732421875 174.4925079345703 C 960.994140625 166.5487060546875 ,961.0134887695312 156.6256866455078 ,960.4945068359375 146.36871337890625 C 959.9689331054688 136.08058166503906 ,958.8487548828125 125.36275482177734 ,956.4098510742188 115.17829895019531 C 953.9873046875 104.98471069335938 ,950.217041015625 95.33097839355469 ,944.798828125 86.98126983642578 C 939.4048461914062 78.61380767822266 ,932.3645629882812 71.57328033447266 ,923.9971313476562 66.17951202392578 C 915.6470947265625 60.76156997680664 ,905.99365234375 56.990577697753906 ,895.800048828125 54.568458557128906 C 885.6154174804688 52.12989044189453 ,874.8978881835938 51.009178161621094 ,864.6094970703125 50.4837760925293 C 854.3524780273438 49.96509552001953 ,844.4298095703125 49.983978271484375 ,836.48583984375 49.97105407714844 L 174.4925079345703 49.97105407714844 C 166.54901123046875 49.98395538330078 ,156.62550354003906 49.965049743652344 ,146.3686981201172 50.48379898071289 C 136.08041381835938 51.00951385498047 ,125.36277770996094 52.12976837158203 ,115.1783447265625 54.5684814453125 C 104.98475646972656 56.99076843261719 ,95.33104705810547 60.76140594482422 ,86.98129272460938 66.1795654296875 C 78.61380767822266 71.57342529296875 ,71.57321166992188 78.61370849609375 ,66.1794662475586 86.98126983642578 C 60.76154708862305 95.33112335205078 ,56.99033737182617 104.98471069335938 ,54.5684814453125 115.1783676147461 C 52.12984085083008 125.36283874511719 ,51.00932312011719 136.08047485351562 ,50.483848571777344 146.36871337890625 C 49.96514129638672 156.625732421875 ,49.98393249511719 166.54867553710938 ,49.97105407714844 174.4925079345703 C 49.96299743652344 187.58596801757812 ,49.903011322021484 200.5839385986328 ,50.994873046875 213.2275848388672 C 52.06951904296875 225.861328125 ,54.38475799560547 238.22140502929688 ,58.65764617919922 249.6593017578125 C 62.89234161376953 261.08770751953125 ,69.07620239257812 271.52093505859375 ,76.93877410888672 280.0447998046875 C 84.78236389160156 288.5971984863281 ,94.24391174316406 295.175537109375 ,104.56986236572266 299.60400390625 C 114.90545654296875 304.0736083984375 ,126.06234741210938 306.4118957519531 ,137.55235290527344 307.5100402832031 C 149.0456085205078 308.6198425292969 ,160.94212341308594 308.57928466796875 ,172.92318725585938 308.5877990722656 L 314.30560302734375 308.5877990722656 C 318.6296081542969 308.5442199707031 ,322.4764709472656 308.7301025390625 ,325.61676025390625 310.06353759765625 C 328.7490234375 311.33831787109375 ,331.1085205078125 313.6742248535156 ,332.2915954589844 316.55499267578125 C 333.4900207519531 319.4178466796875 ,333.4897155761719 322.7576904296875 ,332.29046630859375 325.62054443359375 C 331.1064147949219 328.5013427734375 ,328.7452087402344 330.8372802734375 ,325.6078186035156 332.1120300292969 C 322.4622497558594 333.4454650878906 ,318.6066589355469 333.6313781738281 ,314.26300048828125 333.5877990722656 L 141.2101287841797 333.5877990722656 C 129.00042724609375 333.552490234375 ,117.002197265625 333.705078125 ,106.47502136230469 335.155517578125 C 95.90339660644531 336.567626953125 ,86.70077514648438 339.1797790527344 ,79.0657958984375 343.1820068359375 C 71.42172241210938 347.18109130859375 ,65.31248474121094 352.5377197265625 ,60.748817443847656 359.4104919433594 C 56.17523193359375 366.2705078125 ,53.181121826171875 374.71710205078125 ,51.572181701660156 384.66119384765625 C 49.918128967285156 394.5182189941406 ,49.74732208251953 406.0839538574219 ,49.786903381347656 417.2063903808594 L 49.786903381347656 467.6541748046875 C 49.79991912841797 475.5978698730469 ,49.78099060058594 485.5211181640625 ,50.299644470214844 495.7779541015625 C 50.82545471191406 506.06622314453125 ,51.94554138183594 516.783935546875 ,54.38432693481445 526.9683837890625 C 56.8065185546875 537.1619262695312 ,60.57729721069336 546.815673828125 ,65.99540710449219 555.1654052734375 C 71.38943481445312 563.5328369140625 ,78.4293212890625 570.5734252929688 ,86.7971420288086 575.9671020507812 C 95.1468505859375 581.38525390625 ,104.80050659179688 585.1559448242188 ,114.994140625 587.5781860351562 C 125.17900085449219 590.0167236328125 ,135.89620971679688 591.1373901367188 ,146.18458557128906 591.6629028320312 C 156.44154357910156 592.1814575195312 ,166.36453247070312 592.1627197265625 ,174.308349609375 592.1755981445312 L 385.48248291015625 592.1755981445312 C 399.8205261230469 592.1934814453125 ,414.05181884765625 592.1199951171875 ,426.7847900390625 590.2977905273438 C 439.5502014160156 588.51025390625 ,450.84112548828125 584.9774780273438 ,460.0589294433594 578.8956298828125 C 469.301025390625 572.8467407226562 ,476.476806640625 564.25146484375 ,481.5792541503906 553.1181030273438 C 486.7063903808594 542.01708984375 ,489.7516784667969 528.3776245117188 ,491.31146240234375 513.0060424804688 C 492.9041442871094 497.66864013671875 ,492.9891662597656 480.5937194824219 ,492.96893310546875 463.4256286621094 L 492.96893310546875 304.6449890136719 C 492.98614501953125 279.37646484375 ,492.91778564453125 260.7940673828125 ,491.09930419921875 245.5200653076172 C 489.3185119628906 230.31954956054688 ,485.7861022949219 218.35107421875 ,479.80133056640625 208.2091827392578 C 473.841796875 198.12632751464844 ,465.4775085449219 189.99221801757812 ,454.65478515625 183.92201232910156 C 443.82318115234375 177.83685302734375 ,430.6133728027344 173.9636688232422 ,414.7655029296875 172.01431274414062 C 398.8615417480469 170.00808715820312 ,380.41595458984375 169.9269256591797 ,357.78924560546875 169.9492645263672 L 253.6029815673828 169.94927978515625 C 249.23960876464844 169.99290466308594 ,245.37535095214844 169.80691528320312 ,242.22445678710938 168.4735107421875 C 239.08200073242188 167.1987762451172 ,236.71913146972656 164.86279296875 ,235.53414916992188 161.9820556640625 C 234.33389282226562 159.1192169189453 ,234.33355712890625 155.7792510986328 ,235.5318603515625 152.91647338867188 C 236.71484375 150.0357208251953 ,239.07432556152344 147.69970703125 ,242.20657348632812 146.4250030517578 C 245.3468780517578 145.09158325195312 ,249.19375610351562 144.90560913085938 ,253.5177764892578 144.9492645263672 L 757.561279296875 144.94924926757812 C 761.8850708007812 144.90573120117188 ,765.7321166992188 145.09149169921875 ,768.8723754882812 146.4250030517578 C 772.004638671875 147.69979858398438 ,774.3641967773438 150.03564453125 ,775.5470581054688 152.91648864746094 C 776.7452392578125 155.7793731689453 ,776.7451782226562 159.11912536621094 ,775.5448608398438 161.98202514648438 C 774.3596801757812 164.8628387451172 ,771.9970703125 167.19869995117188 ,768.8544921875 168.4735107421875 C 765.7034912109375 169.8070068359375 ,761.8394775390625 169.9927978515625 ,757.4760131835938 169.9492645263672 L 654.6890869140625 169.9492645263672 C 631.84130859375 169.90599060058594 ,612.9760131835938 170.07994079589844 ,596.8644409179688 172.39002990722656 C 580.7869873046875 174.626953125 ,567.4933471679688 178.92364501953125 ,556.624755859375 185.2896270751953 C 545.7658081054688 191.65084838867188 ,537.3926391601562 199.90798950195312 ,531.3917236328125 209.94622802734375 C 525.369384765625 220.05364990234375 ,521.7744140625 231.84461975097656 ,519.9490966796875 247.00372314453125 C 518.0838012695312 262.219970703125 ,518.0014038085938 280.9553527832031 ,518.0218505859375 306.49090576171875 L 518.0218505859375 535.6281127929688 C 518.0042114257812 543.171875 ,518.0802612304688 550.656005859375 ,518.8968505859375 557.3461303710938 C 519.692626953125 564.0538330078125 ,521.1865234375 569.9825439453125 ,523.5250854492188 574.825927734375 C 525.8592529296875 579.6817626953125 ,529.01904296875 583.4569702148438 ,533.0540161132812 586.1475219726562 C 537.0888671875 588.8507690429688 ,542.0015258789062 590.4644165039062 ,547.850830078125 591.29296875 C 553.6931762695312 592.139404296875 ,560.4949951171875 592.1869506835938 ,568.1561889648438 592.1755981445312 L 620.3564453125 592.1755981445312 C 628.9447021484375 592.1990966796875 ,636.5663452148438 592.0975341796875 ,643.1172485351562 591.12841796875 C 649.6763916015625 590.1859130859375 ,655.19482421875 588.4354248046875 ,659.7562255859375 585.7738647460938 C 664.3167724609375 583.11767578125 ,667.9240112304688 579.5717163085938 ,670.6278686523438 575.144287109375 C 673.3360595703125 570.7217407226562 ,675.1180419921875 565.3988037109375 ,676.1178588867188 559.2807006835938 C 677.141845703125 553.1887817382812 ,677.3333129882812 546.2406005859375 ,677.415283203125 539.1654052734375 L 677.415283203125 369.524169921875 C 677.4011840820312 361.39306640625 ,677.53173828125 353.3690490722656 ,678.557861328125 346.26824951171875 C 679.5640258789062 339.14263916015625 ,681.4425659179688 332.8955993652344 ,684.4575805664062 327.74737548828125 C 687.4610595703125 322.58984375 ,691.592529296875 318.51739501953125 ,696.8401489257812 315.537109375 C 702.0762939453125 312.54705810546875 ,708.4369506835938 310.66455078125 ,715.6377563476562 309.6716613769531 C 722.8176879882812 308.6535339355469 ,730.8650512695312 308.56787109375 ,738.9918823242188 308.5877990722656 L 840.5975341796875 308.5877990722656 C 861.1217651367188 308.66302490234375 ,878.3670654296875 308.34100341796875 ,893.6793212890625 305.1489562988281 C 908.9055786132812 302.0587158203125 ,921.849609375 296.2394104003906 ,931.8849487304688 287.6831359863281 C 941.9552001953125 279.173828125 ,949.0098266601562 267.9943542480469 ,953.39404296875 255.26670837402344 C 957.8230590820312 242.561767578125 ,959.6484985351562 228.33499145507812 ,960.4017333984375 214.2555694580078 C 961.13623046875 200.18692016601562 ,960.9699096679688 186.28509521484375 ,961.00732421875 174.4925079345703 "
     fill="#ffffff"
     fill-opacity="1.0"
     fill-rule="evenodd"
     id="path3" /></svg>
